<svg xmlns="http://www.w3.org/2000/svg"
     viewBox="0 0 600 250"
     id="liveo-logo">
     <defs>
        <linearGradient id="gradient" x1="0%" y1="0%" x2="100%" y2="0%">
          <stop offset="10%" style="stop-color:rgb(255, 80, 100);stop-opacity:1" />
          <stop offset="100%" style="stop-color:rgb(93, 70, 100);stop-opacity:1" />
        </linearGradient>
     </defs>
  <path
        fill="url(#gradient)"
        d="M 53.09,121.96
           C 48.54,122.71 44.50,124.06 40.79,126.93
             28.03,136.80 26.86,155.19 38.33,166.52
             41.70,169.83 45.99,172.29 50.63,173.27
             53.68,173.91 56.90,174.13 59.98,173.69
             64.00,173.11 67.37,171.95 70.81,169.75
             73.34,168.12 76.45,165.07 78.14,162.58
             90.82,143.89 75.50,119.19 53.09,121.96 Z
           M 174.13,44.23
           C 171.31,44.76 168.60,45.50 166.25,47.23
             158.81,52.77 157.36,65.16 163.88,72.01
             167.77,76.08 174.09,77.62 179.54,76.83
             191.93,75.04 197.13,60.18 190.05,50.41
             186.60,45.65 179.94,43.34 174.13,44.23 Z
           M 112.63,45.00
           C 112.63,45.00 112.63,206.86 112.63,206.86
             112.63,206.86 140.95,206.85 140.95,206.85
             140.95,206.85 140.91,47.30 140.93,45.01
             140.93,45.01 112.63,45.00 112.63,45.00 Z
           M 435.87,192.10
           C 432.25,187.05 422.46,178.65 417.67,173.90
             414.12,176.36 413.79,177.59 409.57,179.53
             403.40,182.38 399.24,184.06 388.64,184.60
             356.61,184.55 353.98,164.42 353.22,160.62
             353.22,160.62 437.84,160.62 437.84,160.62
             438.82,160.62 440.96,160.62 442.14,160.62
             442.56,159.45 442.74,154.12 442.76,152.74
             442.89,141.09 441.62,129.50 436.70,118.80
             435.09,115.28 433.10,111.95 430.65,108.96
             420.35,96.40 404.27,89.79 388.15,89.77
             388.15,89.77 381.26,89.77 381.26,89.77
             364.50,89.79 346.06,97.97 335.87,111.42
             329.39,119.97 325.29,130.75 324.21,141.43
             324.21,141.43 323.72,147.98 323.88,150.23
             324.91,168.38 329.35,185.36 344.36,197.19
             348.39,200.37 352.45,202.73 357.15,204.76
             364.27,207.83 374.48,210.21 382.24,210.31
             382.24,210.31 389.62,210.31 389.62,210.31
             400.79,210.29 414.90,206.05 424.56,200.53
             428.72,198.15 432.09,194.96 435.87,192.10 Z
           M 507.66,89.90
           C 501.76,89.95 494.91,91.08 494.91,91.08
             481.87,93.81 471.47,99.43 462.52,109.45
             441.41,133.09 443.77,174.89 467.36,195.96
             478.82,206.20 491.41,209.28 506.29,210.12
             508.19,210.23 519.32,209.45 519.32,209.45
             524.17,208.90 526.29,208.00 530.83,206.28
             537.47,203.76 543.78,200.37 549.03,195.50
             574.18,172.19 574.28,127.60 548.54,104.61
             541.69,98.49 533.32,94.27 524.43,92.05
             519.47,90.80 515.35,89.95 507.66,89.90 Z
           M 162.32,92.23
           C 162.32,92.23 162.32,206.86 162.32,206.86
             162.32,206.86 190.85,206.86 190.85,206.86
             190.85,206.86 190.85,92.23 190.85,92.23
             190.85,92.23 162.32,92.23 162.32,92.23 Z
           M 198.48,92.32
           C 198.48,92.32 236.19,180.79 236.19,180.79
             236.19,180.79 244.74,200.62 244.74,200.62
             245.59,202.71 247.10,205.73 247.68,207.36
             247.68,207.36 278.09,207.33 278.09,207.33
             278.65,206.11 280.52,202.00 281.48,199.98
             281.48,199.98 289.39,181.28 289.39,181.28
             289.39,181.28 315.63,119.29 315.63,119.29
             315.63,119.29 322.92,102.07 322.92,102.07
             324.22,98.97 325.66,95.40 326.95,92.23
             326.95,92.23 296.14,92.23 296.14,92.23
             296.14,92.23 293.19,99.12 293.19,99.12
             293.19,99.12 287.88,111.91 287.88,111.91
             287.88,111.91 279.62,132.08 279.62,132.08
             279.62,132.08 270.53,157.17 270.53,157.17
             270.53,157.17 263.00,178.28 263.00,178.28
             263.00,178.28 254.79,155.70 254.79,155.70
             254.79,155.70 245.44,130.11 245.44,130.11
             245.44,130.11 238.08,112.40 238.08,112.40
             238.08,112.40 232.32,98.62 232.32,98.62
             232.32,98.62 229.14,92.32 229.14,92.32
             229.14,92.32 198.48,92.32 198.48,92.32 Z
           M 415.21,137.00
           C 415.21,137.00 353.71,137.00 353.71,137.00
             356.88,123.45 369.72,115.02 383.23,114.86
             392.32,114.76 401.32,115.82 408.27,122.38
             413.04,126.87 413.72,131.09 415.21,137.00 Z
           M 502.63,116.46
           C 502.63,116.46 504.81,116.20 508.35,116.21
             516.07,116.77 517.79,117.46 521.97,119.67
             544.80,131.77 544.51,171.29 520.50,181.27
             516.71,182.84 511.31,183.82 507.21,183.74
             503.58,183.65 498.77,182.65 495.40,181.28
             475.66,173.20 471.88,144.25 483.49,128.14
             488.47,121.23 494.39,117.89 502.63,116.46 Z" />
</svg>
