<svg xmlns="http://www.w3.org/2000/svg"
     width="100px" height="50px"
     viewBox="0 0 700 200"
     class="live-logo">
  <path
        d="M 87.64,94.82
           C 87.73,118.82 71.00,132.09 52.75,132.00
             35.82,131.82 17.38,120.25 17.09,95.55
             17.12,70.25 38.75,60.62 54.00,60.75
             70.68,60.88 87.91,73.73 87.64,94.82 Z
           M 629.00,182.87
           C 591.25,192.04 544.94,181.59 525.49,145.00
             518.50,131.86 515.17,115.81 515.00,101.00
             514.72,75.83 524.41,50.64 544.00,34.32
             571.32,11.56 624.71,9.33 653.12,30.88
             681.30,52.24 685.25,85.50 681.50,114.88
             681.50,114.88 556.00,115.00 556.00,115.00
             557.89,137.51 577.59,148.19 598.00,150.07
             600.92,150.34 607.28,150.10 610.25,149.88
             616.95,149.36 622.70,148.18 629.00,145.91
             638.10,142.63 640.49,140.03 648.00,135.00
             648.00,135.00 672.75,159.88 672.75,159.88
             662.75,172.12 643.67,179.31 629.00,182.87 Z
           M 159.00,19.00
           C 159.00,19.00 159.00,141.00 159.00,141.00
             159.00,141.00 277.00,141.00 277.00,141.00
             277.00,141.00 277.00,181.00 277.00,181.00
             277.00,181.00 116.00,181.00 116.00,181.00
             116.00,181.00 116.00,19.00 116.00,19.00
             116.00,19.00 159.00,19.00 159.00,19.00 Z
           M 329.00,20.00
           C 329.00,20.00 329.00,181.00 329.00,181.00
             329.00,181.00 290.00,181.00 290.00,181.00
             290.00,181.00 290.00,20.00 290.00,20.00
             290.00,20.00 329.00,20.00 329.00,20.00 Z
           M 384.00,20.00
           C 385.38,28.79 398.99,58.47 403.20,69.00
             403.20,69.00 430.00,141.00 430.00,141.00
             430.00,141.00 437.05,122.00 437.05,122.00
             437.05,122.00 455.81,71.00 455.81,71.00
             455.81,71.00 476.00,20.00 476.00,20.00
             476.00,20.00 520.00,20.00 520.00,20.00
             520.00,20.00 504.42,57.00 504.42,57.00
             504.42,57.00 470.58,137.00 470.58,137.00
             470.58,137.00 452.00,182.00 452.00,182.00
             452.00,182.00 408.00,182.00 408.00,182.00
             408.00,182.00 382.42,121.00 382.42,121.00
             382.42,121.00 362.42,74.00 362.42,74.00
             362.42,74.00 339.00,20.00 339.00,20.00
             339.00,20.00 384.00,20.00 384.00,20.00 Z
           M 642.19,73.00
           C 633.50,53.62 612.00,50.50 603.75,50.38
             593.88,50.25 583.62,52.66 578.00,55.32
             565.73,61.16 559.76,70.43 556.00,83.00
             556.00,83.00 644.00,83.00 644.00,83.00
             643.83,79.30 643.50,76.53 642.19,73.00 Z" />
</svg>
